<svg width="53" height="53" viewBox="0 0 53 53" fill="none" xmlns="http://www.w3.org/2000/svg">
<path d="M8.75337 5.87652C10.3762 5.87652 11.6916 4.56102 11.6916 2.93826C11.6916 1.3155 10.3762 0 8.75337 0C7.66577 0 6.71627 0.590884 6.20825 1.46913H5.81511C3.38098 1.46913 1.40771 3.44239 1.40771 5.87652V19.0987H4.34598V5.87652C4.34598 5.06515 5.00374 4.40739 5.81511 4.40739H6.20825C6.71627 5.28564 7.66577 5.87652 8.75337 5.87652Z" fill="black"/>
<path fill-rule="evenodd" clip-rule="evenodd" d="M6.05072 19.0987H4.34623H1.40797C0.5966 19.0987 -0.0680493 19.7579 0.0055835 20.5659C0.347142 24.314 1.98928 27.843 4.67217 30.5259C6.63954 32.4932 9.06185 33.9009 11.6919 34.6465V38.1974C11.6919 40.1167 12.9186 41.7493 14.6307 42.3541C14.6933 48.1829 19.4379 52.8887 25.2813 52.8887C31.1639 52.8887 35.9325 48.12 35.9325 42.2375V36.361C35.9325 33.3183 38.3991 30.8517 41.4418 30.8517C44.4845 30.8517 46.951 33.3183 46.951 36.361V39.9173C45.2392 40.5223 44.0128 42.1549 44.0128 44.0739C44.0128 46.5081 45.9859 48.4813 48.4201 48.4813C50.8544 48.4813 52.8275 46.5081 52.8275 44.0739C52.8275 42.1549 51.6011 40.5223 49.8893 39.9173V36.361C49.8893 31.6956 46.1071 27.9135 41.4418 27.9135C36.7764 27.9135 32.9943 31.6956 32.9943 36.361V42.2375C32.9943 46.4972 29.5411 49.9504 25.2813 49.9504C21.0604 49.9504 17.6314 46.5598 17.5693 42.3537C19.2807 41.7484 20.5067 40.1161 20.5067 38.1974V34.6465C23.1367 33.9009 25.5592 32.4932 27.5265 30.5259C30.2094 27.843 31.8514 24.314 32.193 20.5659C32.2668 19.7579 31.602 19.0987 30.7906 19.0987V5.87652C30.7906 3.44239 28.8174 1.46913 26.3832 1.46913H25.9901C25.482 0.590884 24.5325 0 23.4449 0C21.8221 0 20.5067 1.3155 20.5067 2.93826C20.5067 4.56102 21.8221 5.87652 23.4449 5.87652C24.5325 5.87652 25.482 5.28564 25.9901 4.40739H26.3832C27.1946 4.40739 27.8523 5.06515 27.8523 5.87652V19.0987H26.148C25.3366 19.0987 24.6916 19.7611 24.5534 20.5608C24.2537 22.2935 23.4261 23.9053 22.1659 25.1653C20.5571 26.7743 18.3748 27.6783 16.0993 27.6783C13.8239 27.6783 11.6416 26.7743 10.0326 25.1653C8.77258 23.9053 7.94487 22.2935 7.64516 20.5608C7.50692 19.7611 6.86197 19.0987 6.05072 19.0987ZM27.236 22.037H28.9909C28.4419 24.4457 27.2237 26.6734 25.4488 28.4482C22.9692 30.9278 19.6061 32.3209 16.0993 32.3209C12.5926 32.3209 9.22948 30.9278 6.74988 28.4482C4.97498 26.6734 3.75677 24.4457 3.20769 22.037H4.96258C5.47782 23.9896 6.50233 25.7903 7.955 27.243C10.1151 29.403 13.0447 30.6165 16.0993 30.6165C19.154 30.6165 22.0836 29.403 24.2437 27.243C25.6964 25.7903 26.7208 23.9896 27.236 22.037ZM48.4201 42.6048C49.2315 42.6048 49.8893 43.2625 49.8893 44.0739C49.8893 44.8853 49.2315 45.543 48.4201 45.543C47.6087 45.543 46.951 44.8853 46.951 44.0739C46.951 43.2625 47.6087 42.6048 48.4201 42.6048ZM17.5684 35.2591V38.1974C17.5684 39.0088 16.9107 39.6665 16.0993 39.6665C15.2879 39.6665 14.6301 39.0088 14.6301 38.1974V35.2591H17.5684Z" fill="black"/>
</svg>
