<svg width="31" height="32" viewBox="0 0 31 32" fill="none" xmlns="http://www.w3.org/2000/svg">
<path d="M21.2528 10.1389C21.2528 10.1389 21.6814 14.6973 22.0484 14.4406C23.2763 13.5816 23.5494 11.4342 23.5494 8.26541C23.5494 2.46985 16.5272 2.21671 14.1422 1.68134C10.1751 0.790817 10.4323 4.94652 10.1231 5.05363C5.08837 9.33609 8.95091 14.4406 8.95091 14.4406C8.95091 14.4406 9.63738 7.24841 12.2431 7.40895C17.1454 10.8349 21.2528 10.1389 21.2528 10.1389Z" stroke="black" stroke-width="2"/>
<path d="M9.59262 20.3569C9.59148 20.3557 9.5909 20.355 9.5909 20.355M29.4162 26.9551V30.7604H1.58398V26.9551C1.58398 25.7566 2.45525 24.4067 4.09118 23.1543C5.62146 21.9828 7.65517 21.0312 9.68537 20.5085C9.6947 20.5261 9.70452 20.5453 9.715 20.5662C9.73751 20.6112 9.7597 20.6576 9.78483 20.7101L9.78786 20.7164C9.81094 20.7646 9.83746 20.8203 9.86415 20.8735L10.0943 21.3323H10.5885H13.9152C14.6695 21.3321 15.0376 21.3322 15.41 21.3323C15.774 21.3324 16.1423 21.3325 16.8795 21.3323H20.2064H20.7005L20.9307 20.8735C20.9967 20.742 21.1013 20.5829 21.2016 20.4816C21.2021 20.4811 21.2026 20.4806 21.203 20.4801C23.2702 20.9964 25.3506 21.9613 26.909 23.1543C28.545 24.4067 29.4162 25.7566 29.4162 26.9551Z" stroke="black" stroke-width="2"/>
<path fill-rule="evenodd" clip-rule="evenodd" d="M8.95188 27.3373C9.39261 27.3373 9.77047 26.9589 9.77047 26.4657C9.77047 25.9725 9.39261 25.5941 8.95188 25.5941C8.51115 25.5941 8.13328 25.9725 8.13328 26.4657C8.13328 26.9589 8.51115 27.3373 8.95188 27.3373ZM8.95188 29.0425C10.3082 29.0425 11.4077 27.8889 11.4077 26.4657C11.4077 25.0425 10.3082 23.8889 8.95188 23.8889C7.59555 23.8889 6.49609 25.0425 6.49609 26.4657C6.49609 27.8889 7.59555 29.0425 8.95188 29.0425Z" fill="black"/>
<path d="M22.0493 28.1836H20.4121V26.4657L21.2307 24.7478H24.5051L25.3237 26.4657V28.1836H23.6865" stroke="black" stroke-width="2" stroke-linejoin="round"/>
<path d="M22.8672 24.7479C23.2765 24.1752 23.6858 21.7415 23.2765 20.8826" stroke="black" stroke-width="2"/>
<path d="M8.71165 24.7479C8.30235 24.1752 7.89305 21.7415 8.30235 20.8826" stroke="black" stroke-width="2"/>
</svg>
