<svg width="31" height="31" viewBox="0 0 31 31" fill="none" xmlns="http://www.w3.org/2000/svg">
<path fill-rule="evenodd" clip-rule="evenodd" d="M15.4582 17.222C15.472 17.2221 15.4858 17.2222 15.4996 17.2222H15.5099H15.5271C20.2829 17.2222 24.1382 13.3669 24.1382 8.61111C24.1382 3.85537 20.2829 0 15.5271 0L15.5099 1.72456e-05L15.4996 0C15.4858 0 15.472 8.6063e-05 15.4582 0.000266896C10.7342 0.0372688 6.91602 3.87827 6.91602 8.61111C6.91602 13.344 10.7342 17.1849 15.4582 17.222ZM22.3627 9.47222H20.6407C20.5939 10.2588 20.4835 11.0144 20.3183 11.7244H21.6741C22.0251 11.0327 22.2627 10.2738 22.3627 9.47222ZM20.4338 13.4466H19.7753C19.6481 13.7587 19.5087 14.0562 19.3586 14.3371C19.7467 14.0768 20.1069 13.7782 20.4338 13.4466ZM18.5421 11.7244C18.7299 11.0377 18.8603 10.2807 18.9151 9.47222H16.3882V11.7244H18.5421ZM16.3882 13.4466H17.8811C17.815 13.574 17.7466 13.6967 17.6762 13.814C17.2466 14.53 16.8004 14.972 16.3882 15.2228V13.4466ZM14.666 11.7244V9.47222H12.0841C12.1388 10.2807 12.2692 11.0377 12.457 11.7244H14.666ZM13.1181 13.4466H14.666V15.2554C14.2388 15.011 13.7718 14.562 13.323 13.814C13.2526 13.6967 13.1842 13.574 13.1181 13.4466ZM10.6809 11.7244C10.5157 11.0144 10.4053 10.2588 10.3584 9.47222H8.69154C8.79152 10.2738 9.02918 11.0327 9.38017 11.7244H10.6809ZM10.6204 13.4466H11.2238C11.3423 13.737 11.4711 14.0148 11.6095 14.2783C11.2541 14.0322 10.923 13.7535 10.6204 13.4466ZM20.6407 7.75C20.5939 6.96338 20.4835 6.20784 20.3183 5.49785H21.6741C22.0251 6.18949 22.2627 6.94839 22.3627 7.75H20.6407ZM20.4338 3.77563H19.7753C19.6481 3.46356 19.5087 3.16609 19.3586 2.88514C19.7467 3.14538 20.1069 3.44403 20.4338 3.77563ZM16.3882 3.77563H17.8811C17.815 3.64818 17.7466 3.52556 17.6762 3.40821C17.2466 2.69226 16.8004 2.25022 16.3882 1.99941V3.77563ZM18.5421 5.49785H16.3882V7.75H18.9151C18.8603 6.9415 18.7299 6.1845 18.5421 5.49785ZM14.666 1.96689V3.77563H13.1181C13.1842 3.64818 13.2526 3.52556 13.323 3.40821C13.7718 2.66025 14.2388 2.21123 14.666 1.96689ZM14.666 5.49785H12.457C12.2692 6.1845 12.1388 6.9415 12.0841 7.75H14.666V5.49785ZM11.6095 2.94388C11.4711 3.20745 11.3423 3.48517 11.2238 3.77563H10.6205C10.923 3.46873 11.2541 3.19001 11.6095 2.94388ZM10.6809 5.49785H9.38017C9.02918 6.18949 8.79152 6.94839 8.69154 7.75H10.3584C10.4053 6.96338 10.5157 6.20784 10.6809 5.49785Z" fill="black"/>
<path fill-rule="evenodd" clip-rule="evenodd" d="M2.35077 9.47274C1.4567 9.45156 0.560495 10.0003 0.269456 10.8543C0.196813 11.0675 0.156763 11.3465 0.129104 11.6011C0.0989822 11.8784 0.0756548 12.211 0.0575543 12.574C0.0212929 13.3013 0.0043549 14.1861 0.000746842 15.0659C-0.00637455 16.8033 0.0382138 18.6119 0.101127 19.1725C0.211297 20.1542 0.775824 21.0687 1.26698 21.8644L1.32168 21.953C1.47065 22.1947 1.61815 22.4341 1.76276 22.6818C2.41181 23.7936 3.11822 24.5427 3.75814 25.2213L3.77261 25.2368C4.13221 25.6181 4.46538 25.9724 4.78054 26.3679C4.48621 26.6769 4.30555 27.0951 4.30555 27.5555V29.2777C4.30555 30.2289 5.07659 30.9999 6.02778 30.9999H12.9167C13.8678 30.9999 14.6389 30.2289 14.6389 29.2777V27.5555C14.6389 26.6449 13.9323 25.8994 13.0374 25.8374C12.9209 24.8593 12.7701 23.5382 12.7563 23.162C12.7444 22.8385 12.6359 22.5222 12.5348 22.2819C12.427 22.0258 12.2924 21.7748 12.1676 21.562C12.0416 21.3469 11.9176 21.1569 11.8256 21.0212C11.7794 20.953 11.7406 20.8975 11.7127 20.8584C11.6989 20.8387 11.6876 20.8232 11.6796 20.8121L11.6699 20.7988L11.667 20.7947L11.6655 20.7926L11.6563 20.7802L8.86367 17.2586L8.83827 17.2319L8.83388 17.2271L8.81373 17.2053C8.7953 17.1851 8.76706 17.1538 8.73123 17.1129C8.65942 17.0309 8.55806 16.9114 8.4438 16.7656C8.21052 16.4679 7.94401 16.0868 7.75801 15.706C7.5615 15.3038 7.18985 14.9169 6.61884 14.888C6.13163 14.8633 5.75058 15.1214 5.52807 15.3202C5.41019 15.4254 5.29824 15.5483 5.19543 15.6832C5.18225 15.5167 5.16933 15.3437 5.15599 15.1647L5.15177 15.1085C5.06729 13.9729 4.96508 12.5996 4.63157 11.5004C4.24106 10.2132 3.37241 9.49694 2.35077 9.47274ZM10.972 21.3032L11.6655 20.7926C11.6654 20.7926 11.6653 20.7925 10.972 21.3032ZM11.3025 25.8333C11.1905 24.8864 11.0508 23.6486 11.0352 23.2252C11.0349 23.222 11.0324 23.1981 11.019 23.1496C11.0043 23.0965 10.9809 23.0296 10.9473 22.9496C10.8794 22.7884 10.7848 22.6086 10.6816 22.4325C10.5799 22.2588 10.4775 22.1017 10.4001 21.9876C10.3617 21.9309 10.3301 21.8857 10.3086 21.8555L10.2861 21.8241L7.5584 18.3845L7.5423 18.367C7.51638 18.3386 7.48004 18.2983 7.43561 18.2475C7.347 18.1464 7.22515 18.0026 7.08823 17.8279C6.8956 17.5821 6.66276 17.262 6.45024 16.904L6.44473 16.9141C6.36679 17.0573 6.324 17.1887 6.31074 17.2748C6.26381 17.5804 6.28809 17.7904 6.31203 17.9043C6.32417 17.9623 6.33683 17.998 6.34191 18.0113L6.34286 18.0137L7.91964 21.1461L6.45471 22.0407L6.4337 22.0119L6.37394 21.9297C6.32228 21.8584 6.24805 21.7559 6.1572 21.6297C5.97559 21.3776 5.72733 21.0305 5.46091 20.6513C4.93821 19.9073 4.31339 18.9944 4.00485 18.4472C3.77399 18.0378 3.66712 17.4958 3.5991 17.0062C3.52806 16.4945 3.48379 15.9005 3.43992 15.3115L3.43851 15.2926C3.34883 14.0887 3.25581 12.8979 2.98354 12.0004C2.86458 11.6082 2.71156 11.411 2.60116 11.3155C2.49591 11.2244 2.39719 11.1965 2.30994 11.1944C2.07503 11.1889 1.9193 11.3524 1.89951 11.4104C1.89801 11.4159 1.89 11.4454 1.87886 11.509C1.86656 11.5794 1.85379 11.6718 1.84125 11.7871C1.81618 12.0179 1.79489 12.3137 1.77764 12.6598C1.7432 13.3505 1.72651 14.2064 1.72295 15.073C1.71575 16.8286 1.76274 18.5361 1.8126 18.9804C1.87496 19.536 2.22042 20.129 2.78775 21.0493L2.78999 21.053C2.93677 21.2911 3.09425 21.5466 3.2501 21.8135C3.79483 22.7466 4.38254 23.3732 5.02561 24.0552L5.03974 24.0702C5.5192 24.5786 6.03888 25.1297 6.5298 25.8333H11.3025ZM6.71675 16.5728C6.71675 16.5724 6.71356 16.5741 6.70711 16.5786C6.71348 16.5754 6.71675 16.573 6.71675 16.5728ZM12.9167 29.2777V27.5555H6.02778V29.2777H12.9167Z" fill="black"/>
<path fill-rule="evenodd" clip-rule="evenodd" d="M30.7308 10.8543C30.4397 10.0003 29.5436 9.45156 28.6495 9.47274C27.6278 9.49694 26.7592 10.2132 26.3686 11.5004C26.0352 12.5996 25.933 13.9728 25.8484 15.1085L25.8442 15.1647C25.831 15.3437 25.8181 15.5167 25.8049 15.6832C25.702 15.5483 25.59 15.4254 25.4722 15.3202C25.2497 15.1214 24.8686 14.8633 24.3815 14.888C23.8104 14.9169 23.4388 15.3038 23.2423 15.706C23.0562 16.0868 22.7897 16.4679 22.5565 16.7656C22.4422 16.9114 22.3409 17.0309 22.269 17.1129C22.2332 17.1538 22.205 17.1851 22.1865 17.2053L22.1664 17.2271L22.1626 17.2312L22.1619 17.2319L22.1366 17.2586L19.344 20.7802L19.3347 20.7926L19.3333 20.7947L19.3303 20.7988L19.3206 20.8121C19.3126 20.8232 19.3014 20.8387 19.2875 20.8584C19.2597 20.8975 19.2209 20.953 19.1746 21.0212C19.0826 21.1569 18.9587 21.3469 18.8326 21.562C18.7079 21.7748 18.5732 22.0258 18.4655 22.2819C18.3644 22.5222 18.2559 22.8385 18.244 23.162C18.2301 23.5382 18.0793 24.8593 17.9628 25.8374C17.068 25.8994 16.3613 26.6449 16.3613 27.5555V29.2777C16.3613 30.2289 17.1325 30.9999 18.0836 30.9999H24.9724C25.9236 30.9999 26.6947 30.2289 26.6947 29.2777V27.5555C26.6947 27.0951 26.514 26.6769 26.2198 26.3679C26.5349 25.9724 26.868 25.6181 27.2276 25.2368L27.2422 25.2213C27.882 24.5427 28.5884 23.7935 29.2375 22.6818C29.3821 22.4341 29.5296 22.1947 29.6786 21.953L29.7333 21.8644C30.2244 21.0687 30.789 20.1542 30.8991 19.1725C30.9621 18.6119 31.0066 16.8033 30.9995 15.0659C30.9959 14.1861 30.9789 13.3013 30.9427 12.574C30.9246 12.211 30.9013 11.8784 30.8711 11.6011C30.8435 11.3465 30.8035 11.0675 30.7308 10.8543ZM20.0283 21.3032C19.3349 20.7925 19.3348 20.7926 19.3347 20.7926L20.0283 21.3032ZM24.4705 25.8333C24.9614 25.1297 25.481 24.5786 25.9605 24.0702L25.9746 24.0552C26.6177 23.3732 27.2054 22.7466 27.7501 21.8135C27.9059 21.5467 28.0632 21.2915 28.21 21.0535L28.2125 21.0493C28.7798 20.129 29.1253 19.536 29.1877 18.9804C29.2375 18.5361 29.2845 16.8286 29.2773 15.073C29.2738 14.2064 29.2571 13.3505 29.2226 12.6598C29.2053 12.3137 29.184 12.0179 29.159 11.7871C29.1464 11.6718 29.1337 11.5794 29.1214 11.509C29.1102 11.4454 29.1022 11.4159 29.1008 11.4104C29.081 11.3524 28.9252 11.1889 28.6903 11.1944C28.6031 11.1965 28.5044 11.2244 28.3991 11.3155C28.2887 11.411 28.1356 11.6082 28.0167 12.0004C27.7444 12.8979 27.6514 14.0887 27.5617 15.2926L27.5603 15.3115C27.5164 15.9005 27.4722 16.4945 27.4011 17.0062C27.3332 17.4958 27.2262 18.0378 26.9954 18.4472C26.6869 18.9944 26.0621 19.9073 25.5393 20.6513C25.2729 21.0305 25.0246 21.3776 24.8431 21.6297C24.7523 21.7559 24.6779 21.8584 24.6263 21.9297L24.5665 22.0119L24.5455 22.0407L23.0806 21.1461L24.6574 18.0137L24.6584 18.0113C24.6635 17.998 24.676 17.9623 24.6882 17.9043C24.7121 17.7904 24.7364 17.5804 24.6895 17.2748C24.6763 17.1887 24.6334 17.0573 24.5555 16.9141L24.55 16.904C24.3375 17.262 24.1046 17.5821 23.912 17.8279C23.7752 18.0026 23.6532 18.1464 23.5646 18.2475C23.5203 18.2983 23.4839 18.3386 23.4579 18.367L23.4418 18.3845L20.7142 21.8241L20.6917 21.8555C20.6702 21.8857 20.6386 21.9309 20.6001 21.9876C20.5227 22.1017 20.4204 22.2588 20.3186 22.4325C20.2155 22.6086 20.1208 22.7884 20.053 22.9496C20.0193 23.0296 19.9959 23.0965 19.9813 23.1496C19.9678 23.1981 19.9654 23.222 19.9651 23.2252C19.9495 23.6486 19.8097 24.8864 19.6977 25.8333H24.4705ZM24.2835 16.5728C24.2835 16.5724 24.2867 16.5741 24.2931 16.5786C24.2867 16.5754 24.2836 16.573 24.2835 16.5728ZM18.0836 29.2777V27.5555H24.9724V29.2777H18.0836Z" fill="black"/>
</svg>
