<svg width="32" height="161" viewBox="0 0 32 161" fill="none" xmlns="http://www.w3.org/2000/svg">
<path d="M16.0001 27.8274C23.3334 27.8274 29.3334 22.3043 29.3334 15.5539C29.3334 8.80347 23.3334 3.2804 16.0001 3.2804C8.66675 3.2804 2.66675 8.80347 2.66675 15.5539C2.66675 22.3043 8.66675 27.8274 16.0001 27.8274Z" stroke="black" stroke-width="1.5" stroke-linecap="round" stroke-linejoin="round"/>
<path d="M10.3333 15.5538L14.1066 19.0272L21.6666 12.0804" stroke="black" stroke-width="1.5" stroke-linecap="round" stroke-linejoin="round"/>
<path d="M16.0001 71.0914C23.3334 71.0914 29.3334 65.5684 29.3334 58.8179C29.3334 52.0675 23.3334 46.5444 16.0001 46.5444C8.66675 46.5444 2.66675 52.0675 2.66675 58.8179C2.66675 65.5684 8.66675 71.0914 16.0001 71.0914Z" stroke="black" stroke-width="1.5" stroke-linecap="round" stroke-linejoin="round"/>
<path d="M10.3333 58.8179L14.1066 62.2913L21.6666 55.3445" stroke="black" stroke-width="1.5" stroke-linecap="round" stroke-linejoin="round"/>
<path d="M16.0001 114.356C23.3334 114.356 29.3334 108.833 29.3334 102.082C29.3334 95.3317 23.3334 89.8086 16.0001 89.8086C8.66675 89.8086 2.66675 95.3317 2.66675 102.082C2.66675 108.833 8.66675 114.356 16.0001 114.356Z" stroke="black" stroke-width="1.5" stroke-linecap="round" stroke-linejoin="round"/>
<path d="M10.3333 102.082L14.1066 105.555L21.6666 98.6086" stroke="black" stroke-width="1.5" stroke-linecap="round" stroke-linejoin="round"/>
<path d="M16.0001 157.62C23.3334 157.62 29.3334 152.097 29.3334 145.346C29.3334 138.596 23.3334 133.073 16.0001 133.073C8.66675 133.073 2.66675 138.596 2.66675 145.346C2.66675 152.097 8.66675 157.62 16.0001 157.62Z" stroke="black" stroke-width="1.5" stroke-linecap="round" stroke-linejoin="round"/>
<path d="M10.3333 145.346L14.1066 148.819L21.6666 141.873" stroke="black" stroke-width="1.5" stroke-linecap="round" stroke-linejoin="round"/>
</svg>
