<svg width="42" height="217" viewBox="0 0 42 217" fill="none" xmlns="http://www.w3.org/2000/svg">
<path fill-rule="evenodd" clip-rule="evenodd" d="M28.5832 99.7324C29.6324 99.7324 30.6573 99.4472 31.5238 98.914C32.4036 99.4462 33.442 99.7252 34.5015 99.7141L37.8671 98.6103C38.8155 97.9056 39.4666 96.9287 39.7114 95.8431C39.9562 94.7576 39.7799 93.6292 39.2119 92.6467C38.644 91.6643 37.7188 90.8875 36.5914 90.4463C36.3339 89.3954 35.6855 88.4553 34.7537 87.7822L31.4683 86.7459H31.0985C30.3677 85.7849 29.2706 85.0995 28.0158 84.8198L20.9722 84.4629C19.8014 84.5506 18.6973 84.9907 17.8378 85.7125C17.4316 85.6262 17.0159 85.5814 16.5986 85.5791C15.5882 85.581 14.6 85.8464 13.7533 86.3433C12.9067 86.8402 12.2376 87.5474 11.827 88.3795L9.15074 90.0881C8.48481 90.9013 8.12631 91.8859 8.12807 92.8966C8.12148 93.3193 8.1838 93.7405 8.31302 94.1468C7.61088 94.968 7.23332 95.9771 7.24033 97.0138C7.23866 98.2161 7.74829 99.3734 8.66441 100.248C8.73835 101.108 9.07209 101.935 9.62953 102.637C10.187 103.339 10.9469 103.89 11.827 104.231C12.8411 104.804 13.6998 105.575 14.3399 106.486C14.9801 107.398 15.3853 108.427 15.526 109.499H22.4359V104.498C22.4346 103.61 22.7095 102.74 23.2293 101.985C23.749 101.231 24.4929 100.623 25.3766 100.231C25.8735 100.059 25.9958 99.8288 26.1455 99.5462C26.2453 99.3578 26.3575 99.1464 26.6007 98.914C26.8121 99.044 26.9759 99.1594 27.1179 99.2594C27.5583 99.5693 27.7898 99.7324 28.5832 99.7324ZM32.6081 97.4445C33.0907 97.7055 33.647 97.8627 34.2285 97.8935L36.9934 96.9867C37.4983 96.5473 37.8189 96.0025 37.9458 95.4397C38.0883 94.8079 37.99 94.1441 37.645 93.5473C37.2966 92.9447 36.7046 92.4289 35.9319 92.1266L35.057 91.7842L34.8334 90.8717C34.7025 90.3371 34.3883 89.8206 33.8997 89.4053L31.1897 88.5505H30.201L29.6578 87.8361C29.2272 87.2699 28.563 86.8232 27.757 86.6136L21.0047 86.2715C20.2339 86.3492 19.5332 86.6469 19.0017 87.0933L18.3254 87.6611L17.4616 87.4776C17.1786 87.4174 16.8879 87.3858 16.5954 87.3838C15.8985 87.3862 15.2292 87.5704 14.6694 87.899C14.1089 88.2279 13.695 88.6787 13.4501 89.175L13.2266 89.628L10.3981 91.4338C10.0891 91.8868 9.93713 92.3905 9.938 92.8882L9.93802 92.9038L9.93778 92.9196C9.93427 93.1448 9.96735 93.3713 10.0378 93.593L10.343 94.5524L9.68865 95.3177C9.2565 95.8232 9.04628 96.4146 9.05021 96.9963L9.05025 97.0036L9.05025 97.011C9.0493 97.689 9.33496 98.3804 9.91382 98.9327L10.4091 99.4053L10.4677 100.087C10.51 100.58 10.702 101.071 11.047 101.506C11.3937 101.943 11.8842 102.307 12.4809 102.538L12.6031 102.586L12.7174 102.65C12.8497 102.725 12.98 102.803 13.1083 102.883L13.1027 102.887C15.563 104.388 16.607 106.573 16.9613 107.69H17.5152V101.089L15.5213 99.3171L14.1679 100.671C13.8145 101.024 13.2415 101.024 12.8881 100.671C12.5347 100.317 12.5347 99.7442 12.8881 99.3908L14.5096 97.7692L14.0231 95.0933L11.8187 93.9911C11.3717 93.7676 11.1905 93.224 11.414 92.777C11.6375 92.33 12.1811 92.1487 12.6282 92.3723L14.7791 93.4478L17.4138 91.7712L16.5944 89.5858C16.4188 89.1178 16.656 88.5962 17.124 88.4207C17.5919 88.2452 18.1135 88.4823 18.289 88.9502L19.1696 91.2985H20.1438L20.6091 90.3678L19.8713 88.6461C19.6744 88.1867 19.8873 87.6547 20.3466 87.4578C20.806 87.2609 21.338 87.4737 21.5349 87.9331L22.1703 89.4157L24.6933 89.8744L24.7037 89.866L26.3344 88.5614C26.7247 88.2492 27.2942 88.3124 27.6064 88.7027C27.9186 89.0929 27.8554 89.6624 27.465 89.9747L26.375 90.8468L27.5832 92.4002L28.0472 91.4725C28.2004 91.1659 28.5138 90.9722 28.8566 90.9722H30.8134C31.3132 90.9722 31.7184 91.3773 31.7184 91.8772C31.7184 92.377 31.3132 92.7821 30.8134 92.7821H29.4159L29.1733 93.2674L30.6836 93.603C30.7559 93.6191 30.8258 93.6439 30.892 93.677L32.1966 94.3293C32.6436 94.5528 32.8248 95.0964 32.6013 95.5434C32.3778 95.9905 31.8342 96.1717 31.3872 95.9481L30.1823 95.3457L27.3557 94.7176C27.1502 94.6719 26.967 94.5559 26.8377 94.3898L24.767 91.7274L22.2573 91.2711C22.2209 91.3011 22.1818 91.3284 22.1403 91.3528L21.608 92.4171V92.929H22.66C22.8004 92.929 22.939 92.9618 23.0647 93.0246L25.6738 94.3291C26.1208 94.5527 26.302 95.0962 26.0785 95.5432C25.8549 95.9903 25.3113 96.1715 24.8644 95.9479L22.4463 94.7389H21.608V96.1172C21.608 96.6169 21.2029 97.0221 20.7031 97.0221C20.2033 97.0221 19.7981 96.6169 19.7981 96.1172V93.8409V93.834V93.8271V93.1084H18.6837L15.8318 94.9233L16.3194 97.605L19.0214 100.007C19.2145 100.178 19.3251 100.425 19.3251 100.683V107.69H20.6261V104.463C20.6261 102.018 21.9918 100.517 22.7378 99.8066C23.3344 99.2382 24.2307 98.759 24.6043 98.5905C24.6785 98.4244 24.9316 97.9932 25.3502 97.5972C25.7687 97.2013 26.2033 96.7889 26.3682 96.6322C27.4885 97.2724 28.3584 97.9153 28.3584 97.9153C28.3584 97.9153 29.5179 97.8517 30.0446 97.6397C30.466 97.47 31.2005 96.9986 31.5152 96.7841L32.6081 97.4445Z" fill="black"/>
<path d="M15.3848 113.421H22.6245V111.612H15.3848V113.421Z" fill="black"/>
<path d="M22.6245 117.041H15.3848V115.231H22.6245V117.041Z" fill="black"/>
<path fill-rule="evenodd" clip-rule="evenodd" d="M11.469 42.1827C11.469 40.9992 12.4284 40.0399 13.6118 40.0399C14.7953 40.0399 15.7546 40.9992 15.7546 42.1827C15.7546 43.3661 14.7953 44.3255 13.6118 44.3255C12.4284 44.3255 11.469 43.3661 11.469 42.1827ZM13.6118 38.6113C11.8841 38.6113 10.4428 39.8383 10.1119 41.4684H8.61196H7.89769V42.1827C7.89769 43.2941 8.21501 44.3314 8.76399 45.209C8.66022 45.2513 8.55832 45.2994 8.46055 45.3507C8.10703 45.5362 7.72449 45.8069 7.37001 46.1611C6.65737 46.8731 6.0332 47.9503 6.0332 49.3684C6.0332 51.1188 6.6135 52.3954 7.32922 53.2426C7.68349 53.662 8.06975 53.9746 8.43165 54.1864C8.54831 54.2546 8.67038 54.317 8.79455 54.3695V65.9539C8.79455 67.0239 9.66702 67.8963 10.737 67.8963C11.807 67.8963 12.6794 67.0239 12.6794 65.9539V58.2732H14.4586V65.9539C14.4586 67.0239 15.3311 67.8963 16.4011 67.8963C17.471 67.8963 18.3435 67.0239 18.3435 65.9539V55.6791C18.6638 55.7283 18.9919 55.7538 19.326 55.7538H20.0403C21.6292 55.7538 23.0665 55.1053 24.1023 54.0585C23.8071 55.1977 23.6116 56.485 23.6116 57.8966C23.6116 58.1423 23.6538 58.3836 23.7342 58.6109H21.4688H20.7545V59.3251V67.1821H22.1831V60.0394H25.7451H25.7544H30.7543V67.1821H32.1828V60.2384L34.4546 66.4859C34.8591 67.5981 36.0885 68.1718 37.2007 67.7673C38.3129 67.3629 38.8867 66.1335 38.4823 65.0213L35.6252 57.1643C35.5299 56.9024 35.3871 56.6675 35.2086 56.468H36.4684C37.6519 56.468 38.6112 55.5087 38.6112 54.3252C38.6112 53.1418 37.6519 52.1824 36.4684 52.1824H32.1253L30.6469 48.9791C31.1121 49.2011 31.633 49.3254 32.1828 49.3254C34.1552 49.3254 35.7542 47.7264 35.7542 45.754C35.7542 43.7816 34.1552 42.1827 32.1828 42.1827C30.2104 42.1827 28.6115 43.7816 28.6115 45.754C28.6115 46.4306 28.7996 47.0633 29.1265 47.6025C29.0605 47.5862 28.9935 47.5729 28.9256 47.5628C28.2105 47.4569 27.4902 47.7186 27.01 48.2589L26.9937 48.2772L26.9788 48.2965L26.433 49.002L26.4235 49.0144L26.4145 49.0272C26.2218 49.3001 25.9946 49.6444 25.7544 50.055L25.7545 50.0396L25.7544 48.6111H24.5341C24.2114 48.2916 23.7676 48.0943 23.2777 48.0942H21.2794L18.1928 45.5989C18.9046 44.646 19.326 43.4635 19.326 42.1827V41.4684H18.6117H17.1118C16.7808 39.8383 15.3397 38.6113 13.6118 38.6113ZM9.50882 46.4683H9.83218C10.6714 47.209 11.7297 47.707 12.8976 47.8526V49.3254C12.8976 52.023 14.5592 54.3326 16.915 55.2864V65.9539C16.915 66.2349 16.6821 66.4678 16.4011 66.4678C16.1201 66.4678 15.8871 66.2349 15.8871 65.9539V57.5589V56.8447H15.1729H11.9652H11.2509V57.5589V65.9539C11.2509 66.2349 11.018 66.4678 10.737 66.4678C10.456 66.4678 10.2231 66.2349 10.2231 65.9539V53.8203V53.106H10.2219V48.6111H8.79332V52.6958C8.67076 52.5919 8.54436 52.4674 8.42045 52.3206C7.92437 51.7334 7.46174 50.7842 7.46174 49.3684C7.46174 48.4003 7.8805 47.6704 8.37966 47.1717C8.63108 46.9205 8.89666 46.7351 9.12422 46.6157C9.3672 46.4882 9.50216 46.4692 9.50882 46.4683C9.50883 46.4683 9.50884 46.4683 9.50882 46.4683ZM19.326 54.3252C18.9897 54.3252 18.6612 54.292 18.3435 54.2287V50.3132L19.5252 51.2685C19.843 51.5254 20.2392 51.6656 20.6478 51.6656H23.2776C23.5659 51.6657 23.8382 51.5973 24.0793 51.476C23.4888 53.1364 21.9034 54.3252 20.0403 54.3252H19.326ZM14.3261 49.3254C14.3261 51.2125 15.3716 52.8554 16.915 53.7065V48.8172V47.3213L18.0783 48.2618L20.4233 50.1576C20.4869 50.209 20.5661 50.2371 20.6478 50.2371H23.2776C23.4749 50.2371 23.6347 50.0772 23.6347 49.88C23.6347 49.6827 23.4749 49.5229 23.2776 49.5228H21.0267H20.7742L20.5777 49.3639L17.198 46.6316C16.3921 47.282 15.4059 47.718 14.3261 47.8526V49.3254ZM13.6118 46.4683C15.7354 46.4683 17.4982 44.9238 17.8382 42.8969H17.1118C16.7808 44.527 15.3397 45.754 13.6118 45.754C11.8841 45.754 10.4428 44.527 10.1119 42.8969H9.38549C9.72554 44.9238 11.4883 46.4683 13.6118 46.4683ZM30.04 45.754C30.04 44.5705 30.9994 43.6112 32.1828 43.6112C33.3663 43.6112 34.3256 44.5705 34.3256 45.754C34.3256 46.9375 33.3663 47.8968 32.1828 47.8968C30.9994 47.8968 30.04 46.9375 30.04 45.754ZM32.1828 58.6109H32.6107H33.1111L33.282 59.0811L35.7972 65.9977C35.932 66.3684 36.3418 66.5597 36.7125 66.4248C37.0833 66.29 37.2745 65.8802 37.1397 65.5095L34.2826 57.6525C34.18 57.3702 33.9117 57.1823 33.6114 57.1823H27.2708H26.4629L26.562 56.3805C26.7629 54.7531 27.2597 53.3833 27.7685 52.3419L28.4286 50.9907L29.0588 52.3561L30.1057 54.6246C30.2225 54.8775 30.4757 55.0395 30.7543 55.0395H36.4684C36.8629 55.0395 37.1827 54.7197 37.1827 54.3252C37.1827 53.9307 36.8629 53.611 36.4684 53.611H31.6683H31.2113L31.0198 53.1961L29.26 49.3832C29.159 49.1644 28.9545 49.0113 28.7162 48.9759C28.4845 48.9417 28.2512 49.0231 28.0913 49.1931L27.5727 49.8635C27.2884 50.2673 26.9158 50.8518 26.5441 51.5952C25.7936 53.0962 25.0401 55.2594 25.0401 57.8966C25.0401 58.086 25.1154 58.2677 25.2494 58.4016C25.382 58.5344 25.5615 58.6094 25.749 58.6109H31.4686H32.1828ZM28.8087 55.2232C28.8993 55.4196 29.0174 55.5976 29.157 55.7538H28.1089C28.2011 55.2904 28.3187 54.8546 28.4514 54.449L28.8087 55.2232Z" fill="black"/>
<path fill-rule="evenodd" clip-rule="evenodd" d="M7.55157 140.862C6.23035 142.543 5.4298 144.84 5.4298 147.238C5.4298 152.614 9.0177 157.127 12.8061 160.375C14.6817 161.983 16.5617 163.242 17.9748 164.1C18.6803 164.528 19.267 164.854 19.6751 165.073C19.7564 165.116 19.8306 165.155 19.8972 165.19C19.9656 165.152 20.0419 165.11 20.1257 165.063C20.5348 164.832 21.1225 164.489 21.8292 164.041C23.2445 163.146 25.1276 161.841 27.0063 160.202C30.8083 156.883 34.3886 152.371 34.3886 147.238C34.3886 144.84 33.5881 142.543 32.267 140.862C30.9502 139.186 29.1519 138.157 27.1206 138.157C24.3127 138.157 22.1349 139.986 20.7215 142.865L19.9092 144.519L19.0969 142.865C17.6834 139.986 15.5056 138.157 12.6977 138.157C10.6666 138.157 8.86838 139.186 7.55157 140.862ZM19.9092 166.211C19.5166 167.027 19.516 167.026 19.516 167.026L19.5119 167.024L19.5016 167.019L19.4646 167.001C19.4327 166.985 19.3868 166.963 19.3276 166.933C19.2091 166.873 19.0378 166.784 18.8212 166.668C18.3879 166.437 17.7727 166.094 17.0359 165.647C15.5645 164.754 13.5984 163.439 11.628 161.749C7.72415 158.402 3.61987 153.429 3.61987 147.238C3.61987 144.455 4.54405 141.76 6.12845 139.743C7.71718 137.721 10.0054 136.348 12.6977 136.348C15.8684 136.348 18.2794 138.124 19.9092 140.631C21.5388 138.124 23.9499 136.348 27.1206 136.348C29.8133 136.348 32.1015 137.722 33.6901 139.744C35.2744 141.76 36.1985 144.456 36.1985 147.238C36.1985 153.195 32.0866 158.17 28.1965 161.565C26.2291 163.282 24.266 164.642 22.7967 165.571C22.0612 166.036 21.447 166.395 21.0148 166.639C20.7986 166.761 20.6277 166.854 20.5097 166.918C20.4508 166.949 20.405 166.973 20.3733 166.99L20.3367 167.009L20.3265 167.014L20.3235 167.016L20.3225 167.016C20.3225 167.016 20.3219 167.017 19.9092 166.211ZM19.9092 166.211L20.3225 167.016L19.9218 167.222L19.516 167.026L19.9092 166.211Z" fill="black"/>
<path fill-rule="evenodd" clip-rule="evenodd" d="M22.4509 195.227L26.6927 202.574L33.55 198.615L29.3082 191.268C28.2149 189.375 25.7937 188.726 23.9 189.819C22.0065 190.912 21.3577 193.334 22.4509 195.227ZM35.5093 197.484L31.2674 190.137C29.5495 187.162 25.7445 186.142 22.7689 187.86C19.7933 189.578 18.7738 193.383 20.4918 196.359L24.7336 203.706C24.463 203.862 24.3704 204.208 24.5266 204.478L29.334 212.805C31.2081 216.051 35.3589 217.163 38.605 215.289C41.8512 213.415 42.9633 209.264 41.0892 206.018L36.2818 197.691C36.1256 197.421 35.7797 197.328 35.5093 197.484ZM29.0179 208.114L31.438 212.349C32.4117 214.053 34.3959 214.81 36.2038 214.34C36.8084 214.183 36.9972 213.475 36.6872 212.932C36.5323 212.661 36.1872 212.574 35.8888 212.666C34.7663 213.013 33.51 212.555 32.9112 211.507L30.4911 207.272C30.2587 206.865 29.7405 206.724 29.3336 206.956C28.9269 207.189 28.7855 207.707 29.0179 208.114Z" fill="black"/>
<path fill-rule="evenodd" clip-rule="evenodd" d="M25.789 204.402L27.781 207.853C27.7215 207.112 28.0842 206.368 28.7725 205.974C29.7216 205.432 30.9308 205.762 31.4732 206.711L33.8933 210.946C34.2186 211.515 34.9178 211.782 35.5547 211.585C36.2118 211.382 37.1818 211.518 37.6693 212.371C37.9754 212.907 38.0498 213.546 37.8666 214.123C37.827 214.248 37.7753 214.369 37.7116 214.485C37.822 214.43 37.9313 214.372 38.0394 214.309C40.7446 212.747 41.6714 209.289 40.1096 206.583L35.585 198.747L25.789 204.402ZM26.6927 202.574L22.4509 195.227C21.3577 193.334 22.0065 190.912 23.9 189.819C25.7937 188.726 28.2149 189.375 29.3082 191.268L33.55 198.615L26.6927 202.574ZM35.5093 197.484L31.2674 190.137C29.5495 187.162 25.7445 186.142 22.7689 187.86C19.7933 189.578 18.7738 193.383 20.4918 196.359L24.7336 203.706C24.4632 203.862 24.3704 204.208 24.5266 204.478L29.334 212.805C31.2081 216.051 35.3589 217.163 38.605 215.289C41.8512 213.415 42.9633 209.264 41.0892 206.018L36.2818 197.691C36.1256 197.421 35.7797 197.328 35.5093 197.484ZM31.438 212.349L29.0179 208.114C28.7855 207.707 28.9269 207.189 29.3336 206.956C29.7405 206.724 30.2587 206.865 30.4911 207.272L32.9112 211.507C33.51 212.555 34.7663 213.013 35.8888 212.666C36.1872 212.574 36.5323 212.661 36.6872 212.932C36.9972 213.475 36.8084 214.183 36.2038 214.34C34.3959 214.81 32.4117 214.053 31.438 212.349Z" fill="black"/>
<path d="M14.3815 199.411C14.617 199.175 14.5995 198.786 14.3292 198.592C10.7927 196.045 5.83187 196.363 2.65045 199.544C-0.530973 202.725 -0.848317 207.686 1.6984 211.223C1.89301 211.493 2.28169 211.511 2.51717 211.275L14.3815 199.411Z" fill="black"/>
<path d="M3.7169 212.475C3.4814 212.711 3.49895 213.099 3.76921 213.294C7.30559 215.841 12.2665 215.523 15.4479 212.342C18.6293 209.161 18.9467 204.2 16.4 200.663C16.2054 200.393 15.8167 200.375 15.5812 200.611L3.7169 212.475Z" fill="black"/>
<path fill-rule="evenodd" clip-rule="evenodd" d="M28.0238 0.814466C28.0238 0.364636 28.3884 0 28.8382 0H32.0961C32.5459 0 32.9106 0.364636 32.9106 0.814466V2.4434H35.354C35.8038 2.4434 36.1684 2.80803 36.1684 3.25786V8.14466H38.6118V9.77359H36.1684V14.6604C36.1684 15.1102 35.8038 15.4749 35.354 15.4749H32.9106V17.1038C32.9106 17.5536 32.5459 17.9182 32.0961 17.9182H28.8382C28.3884 17.9182 28.0238 17.5536 28.0238 17.1038V9.77359H16.6213V17.1038C16.6213 17.5536 16.2566 17.9182 15.8068 17.9182H12.5489C12.0991 17.9182 11.7345 17.5536 11.7345 17.1038V15.4749H9.29107C8.84125 15.4749 8.4766 15.1102 8.4766 14.6604V9.77359H6.0332V8.14466H8.4766V3.25786C8.4766 2.80803 8.84125 2.4434 9.29107 2.4434H11.7345V0.814466C11.7345 0.364636 12.0991 0 12.5489 0H15.8068C16.2566 0 16.6213 0.364636 16.6213 0.814466V8.14466H28.0238V0.814466ZM13.3634 16.2893H14.9923V1.62893H13.3634V16.2893ZM11.7345 4.07233H10.1055V13.8459H11.7345V4.07233ZM32.9106 13.8459V4.07233H34.5395V13.8459H32.9106ZM31.2816 1.62893V16.2893H29.6527V1.62893H31.2816Z" fill="black"/>
</svg>
