<svg width="35" height="180" viewBox="0 0 35 180" fill="none" xmlns="http://www.w3.org/2000/svg">
<path fill-rule="evenodd" clip-rule="evenodd" d="M23.6883 82.6548C24.5578 82.6548 25.4072 82.4184 26.1253 81.9765C26.8545 82.4176 27.715 82.6488 28.5931 82.6397L31.3825 81.7248C32.1685 81.1408 32.708 80.3312 32.911 79.4315C33.1138 78.5318 32.9677 77.5967 32.497 76.7825C32.0263 75.9683 31.2595 75.3245 30.3252 74.9588C30.1118 74.0879 29.5744 73.3088 28.8022 72.7509L26.0794 71.8921H25.7728C25.1672 71.0957 24.258 70.5276 23.218 70.2958L17.3806 70C16.4102 70.0727 15.4952 70.4374 14.7829 71.0356C14.4463 70.9641 14.1017 70.927 13.7559 70.9251C12.9185 70.9266 12.0995 71.1466 11.3978 71.5584C10.6961 71.9702 10.1416 72.5563 9.80137 73.2459L7.58336 74.662C7.03146 75.3359 6.73434 76.1519 6.73581 76.9895C6.73035 77.3399 6.78199 77.6889 6.88908 78.0257C6.30717 78.7062 5.99427 79.5426 6.00008 80.4017C5.99869 81.3982 6.42106 82.3573 7.18031 83.0817C7.24158 83.7951 7.51818 84.4799 7.98016 85.0618C8.44215 85.6437 9.07192 86.1008 9.80137 86.3833C10.6418 86.8582 11.3535 87.4969 11.884 88.2523C12.4145 89.0078 12.7504 89.8608 12.8669 90.7487H18.5936V86.6043C18.5926 85.8685 18.8203 85.1472 19.2511 84.522C19.6819 83.897 20.2984 83.3932 21.0307 83.0679C21.4426 82.9259 21.5439 82.7347 21.668 82.5005C21.7507 82.3444 21.8437 82.1691 22.0453 81.9765C22.2205 82.0843 22.3562 82.1799 22.4739 82.2628C22.8388 82.5197 23.0308 82.6548 23.6883 82.6548ZM27.024 80.7587C27.4239 80.975 27.885 81.1053 28.3669 81.1308L30.6583 80.3793C31.0768 80.0151 31.3425 79.5636 31.4476 79.0972C31.5658 78.5736 31.4843 78.0234 31.1983 77.5288C30.9097 77.0295 30.419 76.602 29.7786 76.3514L29.0535 76.0677L28.8682 75.3114C28.7597 74.8683 28.4993 74.4403 28.0944 74.0961L25.8484 73.3877H25.0291L24.5788 72.7956C24.222 72.3264 23.6716 71.9562 23.0035 71.7825L17.4075 71.4989C16.7687 71.5633 16.188 71.81 15.7474 72.18L15.187 72.6506L14.4711 72.4985C14.2366 72.4486 13.9957 72.4224 13.7532 72.4207C13.1756 72.4227 12.621 72.5754 12.157 72.8477C11.6925 73.1203 11.3494 73.4939 11.1465 73.9052L10.9613 74.2806L8.61714 75.7773C8.36103 76.1527 8.23509 76.5701 8.23581 76.9826L8.23583 76.9956L8.23563 77.0086C8.23272 77.1953 8.26014 77.383 8.31853 77.5667L8.57143 78.3618L8.02916 78.9961C7.671 79.415 7.49679 79.9052 7.50004 80.3872L7.50008 80.3933L7.50007 80.3994C7.49929 80.9613 7.73604 81.5343 8.21577 81.9921L8.62626 82.3837L8.67481 82.949C8.70987 83.3572 8.86896 83.7645 9.15495 84.1248C9.44227 84.4867 9.84877 84.7887 10.3432 84.9802L10.4446 85.0195L10.5393 85.073C10.6489 85.1349 10.7569 85.1993 10.8632 85.266L10.8586 85.2694C12.8976 86.5134 13.7628 88.3239 14.0565 89.2497H14.5155V83.7795L12.863 82.3106L11.7414 83.4324C11.4485 83.7252 10.9736 83.7252 10.6807 83.4324C10.3879 83.1395 10.3879 82.6646 10.6807 82.3717L12.0246 81.0278L11.6214 78.8101L9.79447 77.8967C9.42397 77.7114 9.27382 77.2609 9.45907 76.8904C9.64432 76.52 10.0948 76.3698 10.4653 76.555L12.2479 77.4464L14.4315 76.0568L13.7524 74.2457C13.6069 73.8579 13.8034 73.4255 14.1913 73.28C14.5791 73.1346 15.0114 73.3311 15.1568 73.719L15.8866 75.6651H16.694L17.0797 74.8937L16.4682 73.4669C16.305 73.0862 16.4814 72.6452 16.8621 72.4821C17.2428 72.3189 17.6837 72.4953 17.8469 72.876L18.3735 74.1047L20.4645 74.4848L20.4731 74.4779L21.8245 73.3967C22.148 73.1379 22.62 73.1903 22.8787 73.5138C23.1375 73.8372 23.0851 74.3092 22.7616 74.568L21.8582 75.2907L22.8595 76.5782L23.2441 75.8093C23.371 75.5552 23.6308 75.3947 23.9149 75.3947H25.5366C25.9508 75.3947 26.2866 75.7304 26.2866 76.1447C26.2866 76.5589 25.9508 76.8947 25.5366 76.8947H24.3784L24.1773 77.2968L25.429 77.575C25.4889 77.5884 25.5469 77.6089 25.6018 77.6364L26.6829 78.1769C27.0534 78.3621 27.2035 78.8126 27.0184 79.1831C26.8331 79.5536 26.3826 79.7038 26.0121 79.5186L25.0135 79.0193L22.671 78.4987C22.5007 78.4608 22.3488 78.3647 22.2417 78.2271L20.5255 76.0205L18.4456 75.6424C18.4154 75.6672 18.383 75.6899 18.3486 75.7101L17.9075 76.5921V77.0164H18.7793C18.8957 77.0164 19.0105 77.0436 19.1147 77.0956L21.277 78.1768C21.6475 78.362 21.7977 78.8125 21.6124 79.183C21.4272 79.5535 20.9767 79.7037 20.6062 79.5184L18.6022 78.5164H17.9075V79.6587C17.9075 80.0728 17.5717 80.4087 17.1575 80.4087C16.7433 80.4087 16.4075 80.0728 16.4075 79.6587V77.7722V77.7664V77.7607V77.1651H15.4839L13.1203 78.6692L13.5244 80.8917L15.7638 82.8822C15.9238 83.0245 16.0155 83.2285 16.0155 83.4427V89.2497H17.0937V86.5752C17.0937 84.5489 18.2256 83.3051 18.8438 82.7163C19.3383 82.2452 20.0811 81.8481 20.3907 81.7085C20.4522 81.5708 20.662 81.2134 21.0088 80.8853C21.3557 80.5571 21.7159 80.2154 21.8526 80.0855C22.781 80.6161 23.502 81.1489 23.502 81.1489C23.502 81.1489 24.4629 81.0962 24.8995 80.9205C25.2487 80.7798 25.8574 80.3891 26.1182 80.2114L27.024 80.7587Z" fill="#78D6C7"/>
<path d="M12.75 94.0001H18.75V92.5001H12.75V94.0001Z" fill="#78D6C7"/>
<path d="M18.75 96.9999H12.75V95.4999H18.75V96.9999Z" fill="#78D6C7"/>
<path fill-rule="evenodd" clip-rule="evenodd" d="M9.50502 34.9598C9.50502 33.979 10.3001 33.1839 11.2809 33.1839C12.2617 33.1839 13.0568 33.979 13.0568 34.9598C13.0568 35.9406 12.2617 36.7357 11.2809 36.7357C10.3001 36.7357 9.50502 35.9406 9.50502 34.9598ZM11.2809 32C9.84898 32 8.65455 33.0168 8.38031 34.3678H7.13718H6.54522V34.9598C6.54522 35.8809 6.8082 36.7406 7.26318 37.4679C7.17718 37.503 7.09273 37.5428 7.0117 37.5853C6.71872 37.7391 6.40168 37.9635 6.1079 38.257C5.51729 38.847 5 39.7398 5 40.9151C5 42.3658 5.48093 43.4238 6.07409 44.1258C6.3677 44.4734 6.68781 44.7325 6.98775 44.908C7.08443 44.9646 7.18559 45.0163 7.28851 45.0598V54.6605C7.28851 55.5473 8.01157 56.2704 8.89833 56.2704C9.78509 56.2704 10.5082 55.5473 10.5082 54.6605V48.2951H11.9827V54.6605C11.9827 55.5473 12.7058 56.2704 13.5925 56.2704C14.4793 56.2704 15.2023 55.5473 15.2023 54.6605V46.1452C15.4678 46.1859 15.7397 46.207 16.0166 46.207H16.6086C17.9254 46.207 19.1166 45.6696 19.975 44.8021C19.7304 45.7462 19.5683 46.813 19.5683 47.9829C19.5683 48.1866 19.6033 48.3865 19.6699 48.5749H17.7925H17.2005V49.1668V55.6784H18.3844V49.7588H21.3365H21.3442H25.488V55.6784H26.6719V49.9237L28.5547 55.1014C28.8898 56.0232 29.9088 56.4986 30.8305 56.1635C31.7523 55.8283 32.2278 54.8094 31.8926 53.8876L29.5248 47.376C29.4458 47.159 29.3275 46.9643 29.1795 46.799H30.2236C31.2045 46.799 31.9995 46.0039 31.9995 45.0231C31.9995 44.0424 31.2045 43.2472 30.2236 43.2472H26.6242L25.3989 40.5924C25.7845 40.7764 26.2162 40.8794 26.6719 40.8794C28.3065 40.8794 29.6317 39.5542 29.6317 37.9196C29.6317 36.285 28.3065 34.9598 26.6719 34.9598C25.0372 34.9598 23.7121 36.285 23.7121 37.9196C23.7121 38.4803 23.868 39.0047 24.1389 39.4515C24.0842 39.438 24.0287 39.427 23.9724 39.4187C23.3797 39.3309 22.7828 39.5478 22.3848 39.9955L22.3713 40.0107L22.359 40.0267L21.9067 40.6114L21.8987 40.6217L21.8913 40.6323C21.7316 40.8585 21.5433 41.1438 21.3442 41.4841L21.3443 41.4714L21.3442 40.2874H20.3329C20.0655 40.0227 19.6976 39.8592 19.2916 39.8591H17.6355L15.0774 37.791C15.6673 37.0013 16.0166 36.0213 16.0166 34.9598V34.3678H15.4246H14.1815C13.9073 33.0168 12.7129 32 11.2809 32ZM7.88047 38.5116H8.14846C8.84394 39.1254 9.72109 39.5381 10.6889 39.6588V40.8794C10.6889 43.1151 12.0661 45.0292 14.0184 45.8197V54.6605C14.0184 54.8934 13.8254 55.0864 13.5925 55.0864C13.3596 55.0864 13.1666 54.8934 13.1666 54.6605V47.7031V47.1111H12.5746H9.9162H9.32424V47.7031V54.6605C9.32424 54.8934 9.13123 55.0864 8.89833 55.0864C8.66544 55.0864 8.47243 54.8934 8.47243 54.6605V44.6046V44.0126H8.47141V40.2874H7.28749V43.6727C7.18591 43.5866 7.08116 43.4834 6.97847 43.3618C6.56733 42.8751 6.18392 42.0884 6.18392 40.9151C6.18392 40.1128 6.53097 39.5078 6.94466 39.0945C7.15302 38.8863 7.37313 38.7327 7.56173 38.6337C7.7631 38.5281 7.87494 38.5123 7.88047 38.5116C7.88048 38.5116 7.88047 38.5116 7.88047 38.5116ZM16.0166 45.0231C15.7379 45.0231 15.4656 44.9956 15.2023 44.9432V41.6981L16.1817 42.4898C16.445 42.7028 16.7734 42.8189 17.1121 42.8189H19.2915C19.5305 42.819 19.7562 42.7623 19.956 42.6618C19.4665 44.0379 18.1526 45.0231 16.6086 45.0231H16.0166ZM11.8729 40.8794C11.8729 42.4434 12.7393 43.805 14.0184 44.5104V40.4583V39.2185L14.9826 39.998L16.926 41.5692C16.9787 41.6117 17.0443 41.635 17.1121 41.635H19.2915C19.455 41.635 19.5875 41.5025 19.5875 41.3391C19.5875 41.1756 19.455 41.0431 19.2915 41.043H17.4261H17.2168L17.0539 40.9114L14.253 38.6469C13.5851 39.186 12.7677 39.5473 11.8729 39.6588V40.8794ZM11.2809 38.5116C13.0408 38.5116 14.5018 37.2316 14.7835 35.5518H14.1815C13.9073 36.9027 12.7129 37.9196 11.2809 37.9196C9.84898 37.9196 8.65455 36.9027 8.38031 35.5518H7.77825C8.06007 37.2316 9.52101 38.5116 11.2809 38.5116ZM24.896 37.9196C24.896 36.9388 25.6911 36.1437 26.6719 36.1437C27.6527 36.1437 28.4478 36.9388 28.4478 37.9196C28.4478 38.9004 27.6527 39.6955 26.6719 39.6955C25.6911 39.6955 24.896 38.9004 24.896 37.9196ZM26.6719 48.5749H27.0265H27.4412L27.5828 48.9646L29.6673 54.6968C29.779 55.004 30.1187 55.1626 30.4259 55.0508C30.7332 54.9391 30.8917 54.5994 30.78 54.2922L28.4121 47.7807C28.3271 47.5467 28.1047 47.391 27.8558 47.391H22.601H21.9314L22.0135 46.7265C22.18 45.3777 22.5918 44.2425 23.0134 43.3794L23.5605 42.2596L24.0828 43.3912L24.9505 45.2712C25.0472 45.4808 25.257 45.6151 25.488 45.6151H30.2236C30.5506 45.6151 30.8156 45.3501 30.8156 45.0231C30.8156 44.6962 30.5506 44.4312 30.2236 44.4312H26.2455H25.8667L25.708 44.0873L24.2496 40.9274C24.1659 40.746 23.9964 40.6191 23.7989 40.5898C23.6068 40.5614 23.4135 40.6289 23.2809 40.7698L22.8511 41.3254C22.6156 41.6601 22.3068 42.1445 21.9987 42.7605C21.3767 44.0045 20.7523 45.7973 20.7523 47.9829C20.7523 48.1399 20.8147 48.2905 20.9257 48.4015C21.0356 48.5115 21.1843 48.5737 21.3397 48.5749H26.0799H26.6719ZM23.8755 45.7673C23.9506 45.9301 24.0485 46.0776 24.1642 46.207H23.2956C23.372 45.823 23.4694 45.4618 23.5794 45.1257L23.8755 45.7673Z" fill="#78D6C7"/>
<path fill-rule="evenodd" clip-rule="evenodd" d="M6.25845 116.741C5.16347 118.135 4.5 120.038 4.5 122.026C4.5 126.481 7.47353 130.222 10.6132 132.913C12.1676 134.246 13.7257 135.289 14.8969 136C15.4816 136.355 15.9678 136.625 16.306 136.806C16.3734 136.842 16.4349 136.875 16.4901 136.904C16.5467 136.873 16.61 136.837 16.6795 136.798C17.0185 136.607 17.5055 136.322 18.0913 135.952C19.2642 135.21 20.8248 134.128 22.3818 132.769C25.5328 130.019 28.5 126.28 28.5 122.026C28.5 120.039 27.8366 118.135 26.7417 116.741C25.6504 115.352 24.16 114.5 22.4766 114.5C20.1495 114.5 18.3446 116.016 17.1732 118.401L16.5 119.773L15.8268 118.401C14.6554 116.015 12.8504 114.5 10.5234 114.5C8.8401 114.5 7.34977 115.352 6.25845 116.741ZM16.5 137.75C16.1747 138.426 16.1741 138.426 16.1741 138.426L16.1708 138.424L16.1622 138.42L16.1315 138.405C16.1051 138.392 16.067 138.373 16.018 138.348C15.9198 138.298 15.7778 138.225 15.5983 138.129C15.2393 137.937 14.7293 137.653 14.1188 137.282C12.8993 136.542 11.2699 135.452 9.63683 134.052C6.40148 131.278 3 127.156 3 122.026C3 119.719 3.76592 117.485 5.07902 115.814C6.3957 114.139 8.29208 113 10.5234 113C13.1511 113 15.1493 114.473 16.5 116.55C17.8506 114.473 19.8488 113 22.4766 113C24.7081 113 26.6045 114.139 27.9212 115.815C29.2342 117.486 30 119.72 30 122.026C30 126.963 26.5922 131.085 23.3682 133.9C21.7377 135.323 20.1108 136.449 18.8931 137.219C18.2835 137.605 17.7745 137.903 17.4163 138.105C17.2371 138.206 17.0955 138.283 16.9977 138.335C16.9489 138.362 16.9109 138.382 16.8847 138.395L16.8543 138.411L16.8458 138.415L16.8433 138.417L16.8425 138.417C16.8425 138.417 16.842 138.417 16.5 137.75ZM16.5 137.75L16.8425 138.417L16.5104 138.587L16.1741 138.426L16.5 137.75Z" fill="#78D6C7"/>
<path fill-rule="evenodd" clip-rule="evenodd" d="M18.6068 161.797L22.1223 167.886L27.8053 164.605L24.2899 158.516C23.3838 156.947 21.3772 156.409 19.8078 157.315C18.2385 158.221 17.7008 160.228 18.6068 161.797ZM29.4291 163.668L25.9136 157.579C24.4898 155.113 21.3364 154.268 18.8703 155.692C16.4043 157.115 15.5593 160.269 16.9832 162.735L20.4986 168.824C20.2744 168.953 20.1976 169.24 20.3271 169.464L24.3112 176.365C25.8644 179.055 29.3045 179.977 31.9947 178.424C34.685 176.87 35.6067 173.43 34.0536 170.74L30.0694 163.839C29.9399 163.615 29.6532 163.538 29.4291 163.668ZM24.0493 172.477L26.055 175.987C26.862 177.399 28.5064 178.027 30.0047 177.637C30.5058 177.507 30.6622 176.92 30.4054 176.471C30.2769 176.246 29.9909 176.174 29.7436 176.25C28.8134 176.538 27.7721 176.158 27.2759 175.29L25.2703 171.78C25.0776 171.443 24.6482 171.325 24.311 171.518C23.9739 171.711 23.8567 172.14 24.0493 172.477Z" fill="#78D6C7"/>
<path fill-rule="evenodd" clip-rule="evenodd" d="M21.3733 169.401L23.0242 172.261C22.9749 171.647 23.2754 171.03 23.8459 170.704C24.6325 170.255 25.6347 170.528 26.0842 171.315L28.0898 174.824C28.3595 175.296 28.9389 175.518 29.4668 175.354C30.0113 175.186 30.8152 175.298 31.2193 176.005C31.4729 176.449 31.5346 176.979 31.3828 177.458C31.3499 177.561 31.3071 177.661 31.2543 177.757C31.3458 177.712 31.4364 177.664 31.526 177.612C33.7679 176.317 34.5361 173.451 33.2417 171.209L29.4919 164.714L21.3733 169.401ZM22.1223 167.886L18.6068 161.797C17.7008 160.228 18.2385 158.221 19.8078 157.315C21.3772 156.409 23.3838 156.947 24.2899 158.516L27.8053 164.605L22.1223 167.886ZM29.4291 163.668L25.9136 157.579C24.4898 155.113 21.3364 154.268 18.8703 155.692C16.4043 157.115 15.5593 160.269 16.9832 162.735L20.4986 168.824C20.2746 168.953 20.1976 169.24 20.3271 169.464L24.3112 176.365C25.8644 179.055 29.3045 179.977 31.9947 178.424C34.685 176.87 35.6067 173.43 34.0536 170.74L30.0694 163.839C29.9399 163.615 29.6532 163.538 29.4291 163.668ZM26.055 175.987L24.0493 172.477C23.8567 172.14 23.9739 171.711 24.311 171.518C24.6482 171.325 25.0776 171.443 25.2703 171.78L27.2759 175.29C27.7721 176.158 28.8134 176.538 29.7436 176.25C29.9909 176.174 30.2769 176.246 30.4054 176.471C30.6622 176.92 30.5058 177.507 30.0047 177.637C28.5064 178.027 26.862 177.399 26.055 175.987Z" fill="#78D6C7"/>
<path d="M11.9189 165.264C12.1141 165.069 12.0996 164.747 11.8755 164.586C8.94464 162.475 4.83324 162.738 2.1966 165.375C-0.440051 168.011 -0.703054 172.123 1.40757 175.054C1.56886 175.278 1.89098 175.292 2.08614 175.097L11.9189 165.264Z" fill="#78D6C7"/>
<path d="M3.08059 176.091C2.88542 176.287 2.89996 176.609 3.12395 176.77C6.05477 178.881 10.1662 178.618 12.8029 175.981C15.4395 173.344 15.7025 169.233 13.5919 166.302C13.4306 166.078 13.1085 166.063 12.9133 166.259L3.08059 176.091Z" fill="#78D6C7"/>
<path fill-rule="evenodd" clip-rule="evenodd" d="M23.225 0.675C23.225 0.302198 23.5272 0 23.9 0H26.6C26.9728 0 27.275 0.302198 27.275 0.675V2.025H29.3C29.6728 2.025 29.975 2.3272 29.975 2.7V6.75H32V8.1H29.975V12.15C29.975 12.5228 29.6728 12.825 29.3 12.825H27.275V14.175C27.275 14.5478 26.9728 14.85 26.6 14.85H23.9C23.5272 14.85 23.225 14.5478 23.225 14.175V8.1H13.775V14.175C13.775 14.5478 13.4728 14.85 13.1 14.85H10.4C10.0272 14.85 9.725 14.5478 9.725 14.175V12.825H7.7C7.32721 12.825 7.025 12.5228 7.025 12.15V8.1H5V6.75H7.025V2.7C7.025 2.3272 7.32721 2.025 7.7 2.025H9.725V0.675C9.725 0.302198 10.0272 0 10.4 0H13.1C13.4728 0 13.775 0.302198 13.775 0.675V6.75H23.225V0.675ZM11.075 13.5H12.425V1.35H11.075V13.5ZM9.725 3.375H8.375V11.475H9.725V3.375ZM27.275 11.475V3.375H28.625V11.475H27.275ZM25.925 1.35V13.5H24.575V1.35H25.925Z" fill="#78D6C7"/>
</svg>
