<svg width="32" height="28" viewBox="0 0 32 28" fill="none" xmlns="http://www.w3.org/2000/svg">
<path fill-rule="evenodd" clip-rule="evenodd" d="M5.65242 4.06924C4.46138 5.58489 3.73972 7.6557 3.73972 9.81762C3.73972 11.0721 3.95546 12.2723 4.33526 13.4152H11.4205L14.1844 8.5015L15.9115 14.5462L18.0249 11.8289H23.3187V13.4605H18.8229L15.2258 18.0854L13.6897 12.709L12.3747 15.0467H0.476562V13.4152H2.62688C2.29604 12.2741 2.10814 11.0729 2.10814 9.81762C2.10814 7.30882 2.94125 4.87875 4.36953 3.06117C5.80171 1.23856 7.86443 0 10.2915 0C13.1497 0 15.3232 1.6017 16.7924 3.86178C18.2614 1.6018 20.4349 0 23.2932 0C25.7205 0 27.7832 1.23878 29.2154 3.06141C30.6436 4.87916 31.4766 7.30923 31.4766 9.81762C31.4766 15.1876 27.7699 19.6719 24.263 22.7328C22.4895 24.2808 20.7199 25.5061 19.3954 26.3439C18.7323 26.7634 18.1786 27.0871 17.789 27.3068C17.5941 27.4166 17.4401 27.5007 17.3337 27.5577C17.2806 27.5862 17.2393 27.608 17.2108 27.623L17.1777 27.6402L17.1685 27.6449L17.1658 27.6464L17.1649 27.6468C17.1649 27.6468 17.1644 27.6471 16.7924 26.9211C16.4385 27.6561 16.4382 27.656 16.4382 27.656L16.4333 27.6536L16.422 27.6481L16.3808 27.6279C16.3454 27.6103 16.2941 27.5846 16.2282 27.5511C16.0963 27.4839 15.9058 27.3847 15.6662 27.2548C15.1872 26.9949 14.5108 26.611 13.7134 26.1108C12.1216 25.1123 10.0336 23.6418 8.07009 21.7604C7.0227 20.7569 6.00541 19.6315 5.11644 18.3929C4.85373 18.0268 4.93749 17.5171 5.30352 17.2544C5.66955 16.9918 6.17926 17.0755 6.44194 17.4416C7.2614 18.5833 8.20878 19.6338 9.19882 20.5824C11.058 22.3636 13.0489 23.7679 14.5804 24.7286C15.3447 25.2081 15.991 25.5748 16.4443 25.8206C16.5729 25.8905 16.686 25.9505 16.7816 26.0005C16.8432 25.9666 16.9119 25.9282 16.9876 25.8856C17.3563 25.6776 17.8861 25.368 18.5232 24.965C19.799 24.158 21.4965 22.9818 23.1901 21.5036C26.6175 18.5121 29.845 14.4446 29.845 9.81762C29.845 7.65602 29.1234 5.58522 27.9324 4.06948C26.7454 2.55872 25.1243 1.63158 23.2932 1.63158C20.762 1.63158 18.7987 3.28013 17.5246 5.87515L16.7924 7.36666L16.0601 5.87515C14.7859 3.27996 12.8226 1.63158 10.2915 1.63158C8.46053 1.63158 6.83948 2.55856 5.65242 4.06924ZM16.7924 26.9211L16.4382 27.656L16.8037 27.8319L17.1649 27.6468L16.7924 26.9211Z" fill="black"/>
</svg>
