<svg width="29" height="31" viewBox="0 0 29 31" fill="none" xmlns="http://www.w3.org/2000/svg">
<path fill-rule="evenodd" clip-rule="evenodd" d="M28.2759 31.0001H0.200195V29.4501H28.2759V31.0001Z" fill="black"/>
<path fill-rule="evenodd" clip-rule="evenodd" d="M14.2379 2.32471C14.6459 2.32471 14.9767 2.67169 14.9767 3.09971V7.74971C14.9767 8.17774 14.6459 8.52471 14.2379 8.52471C13.8298 8.52471 13.499 8.17774 13.499 7.74971V3.09971C13.499 2.67169 13.8298 2.32471 14.2379 2.32471Z" fill="black"/>
<path fill-rule="evenodd" clip-rule="evenodd" d="M11.2832 5.4249C11.2832 4.99687 11.614 4.6499 12.022 4.6499H16.455C16.8631 4.6499 17.1939 4.99687 17.1939 5.4249C17.1939 5.85293 16.8631 6.1999 16.455 6.1999H12.022C11.614 6.1999 11.2832 5.85293 11.2832 5.4249Z" fill="black"/>
<path fill-rule="evenodd" clip-rule="evenodd" d="M17.1936 1.55H11.2829C10.8748 1.55 10.5441 1.89698 10.5441 2.325V8.525C10.5441 8.95303 10.8748 9.3 11.2829 9.3H17.1936C17.6016 9.3 17.9324 8.95303 17.9324 8.525V2.325C17.9324 1.89698 17.6016 1.55 17.1936 1.55ZM11.2829 0H17.1936C18.4177 0 19.4101 1.04094 19.4101 2.325V8.525C19.4101 9.8091 18.4177 10.85 17.1936 10.85H11.2829C10.0587 10.85 9.06641 9.8091 9.06641 8.525V2.325C9.06641 1.04094 10.0587 0 11.2829 0Z" fill="black"/>
<path fill-rule="evenodd" clip-rule="evenodd" d="M3.15527 10.075C3.15527 8.7909 4.1476 7.75 5.37177 7.75H9.25752V9.3H5.37177C4.96372 9.3 4.63294 9.64697 4.63294 10.075V29.45H3.15527V10.075Z" fill="black"/>
<path fill-rule="evenodd" clip-rule="evenodd" d="M25.321 10.075C25.321 8.7909 24.3287 7.75 23.1045 7.75H19.2188V9.3H23.1045C23.5126 9.3 23.8433 9.64697 23.8433 10.075V29.45H25.321V10.075Z" fill="black"/>
<path fill-rule="evenodd" clip-rule="evenodd" d="M14.2385 23.2502C13.4224 23.2502 12.7609 23.9441 12.7609 24.8002V30.2252H11.2832V24.8002C11.2832 23.0881 12.6064 21.7002 14.2385 21.7002C15.8707 21.7002 17.1939 23.0881 17.1939 24.8002V30.2252H15.7162V24.8002C15.7162 23.9441 15.0547 23.2502 14.2385 23.2502Z" fill="black"/>
<path fill-rule="evenodd" clip-rule="evenodd" d="M9.80494 15.4999V12.3999H6.84961V15.4999H9.80494Z" fill="black"/>
<path fill-rule="evenodd" clip-rule="evenodd" d="M9.80494 20.1503V17.0503H6.84961V20.1503H9.80494Z" fill="black"/>
<path fill-rule="evenodd" clip-rule="evenodd" d="M15.7161 15.4999V12.3999H12.7607V15.4999H15.7161Z" fill="black"/>
<path fill-rule="evenodd" clip-rule="evenodd" d="M15.7161 20.1503V17.0503H12.7607V20.1503H15.7161Z" fill="black"/>
<path fill-rule="evenodd" clip-rule="evenodd" d="M21.6262 15.4999V12.3999H18.6709V15.4999H21.6262Z" fill="black"/>
<path fill-rule="evenodd" clip-rule="evenodd" d="M21.6262 20.1503V17.0503H18.6709V20.1503H21.6262Z" fill="black"/>
</svg>
