<svg width="31" height="32" viewBox="0 0 31 32" fill="none" xmlns="http://www.w3.org/2000/svg">
<path fill-rule="evenodd" clip-rule="evenodd" d="M26.4688 6.90094L24.5314 0.328461L22.5939 6.90094L18.8457 8.77078L22.6104 10.6489L24.5314 16.3987L26.4523 10.6489L30.2171 8.77078L26.4688 6.90094ZM23.9699 8.14747L24.5314 6.24307L25.0928 8.14747L26.3423 8.77078L25.1093 9.38589L24.5314 11.1157L23.9534 9.38589L22.7205 8.77078L23.9699 8.14747Z" fill="#333333"/>
<path d="M11.62 8.95774L12.4529 5.46727L13.2859 8.95774L15.7847 9.83035L13.2859 10.703L12.4529 14.1934L11.62 10.703L9.12109 9.83035L11.62 8.95774Z" fill="#333333"/>
<path fill-rule="evenodd" clip-rule="evenodd" d="M6.62266 29.6818V29.8971C6.62266 30.8609 5.87683 31.6424 4.95675 31.6424H2.4579C1.53784 31.6424 0.791992 30.8609 0.791992 29.8971V20.3024C0.791992 19.3386 1.53784 18.5571 2.4579 18.5571H4.95675C5.74473 18.5571 6.40493 19.1303 6.57826 19.9004C7.68142 19.4839 8.96992 18.9881 9.36415 18.7998C9.699 18.64 10.0857 18.5858 10.4069 18.5663C10.7448 18.5459 11.0953 18.56 11.402 18.5849C11.7113 18.6099 11.9921 18.6474 12.1949 18.6783C12.2966 18.6938 12.3799 18.7078 12.4387 18.7181C12.4681 18.7234 12.4914 18.7276 12.5079 18.7307L12.5275 18.7344L12.5332 18.7355L12.5362 18.736L12.5511 18.739L18.1226 20.0484L18.1574 20.06L18.1669 20.0631L18.2053 20.0754C18.2403 20.0865 18.2936 20.1028 18.3622 20.1227C18.4997 20.1627 18.6975 20.2165 18.9332 20.2703C19.4121 20.3798 20.0153 20.482 20.5778 20.482C21.0975 20.482 21.635 20.6848 21.9224 21.2362C22.1692 21.7096 22.1117 22.2295 22.0194 22.5894C21.9043 23.0374 21.6661 23.5089 21.3633 23.9094C21.772 23.7479 22.2188 23.5566 22.6984 23.3505L22.8009 23.3064C24.1528 22.7252 25.7558 22.036 27.1698 21.7911C28.7854 21.511 29.9614 22.1254 30.4945 23.2155C30.969 24.1858 30.8588 25.4593 30.1447 26.2266C29.9654 26.4192 29.6923 26.6212 29.418 26.8076C29.1251 27.0065 28.7644 27.2314 28.3636 27.4695C27.5608 27.9466 26.567 28.4949 25.5692 29.025C23.5934 30.0748 21.5223 31.0957 20.8642 31.3481C20.1016 31.6408 19.2824 31.6685 18.4946 31.626C18.0654 31.6028 17.5669 31.5509 17.0714 31.4993C16.7134 31.462 16.357 31.4248 16.0296 31.3989C14.4238 31.2714 13.1914 30.8609 12.0562 30.4827L11.9182 30.4367C10.7457 30.0468 9.65494 29.701 8.20977 29.64C7.87933 29.626 7.21955 29.6514 6.62266 29.6818ZM10.0551 20.3879C10.1085 20.3624 10.2501 20.324 10.503 20.3087C10.7392 20.2943 11.0087 20.3034 11.2734 20.3249C11.5355 20.3462 11.7777 20.3783 11.9551 20.4053C12.0432 20.4187 12.1142 20.4307 12.1623 20.4392C12.1864 20.4435 12.2045 20.4468 12.2163 20.449L12.2181 20.4493L17.6885 21.7349L17.7261 21.7469C17.7716 21.7612 17.8363 21.781 17.9172 21.8046C18.0789 21.8515 18.3071 21.9135 18.5781 21.9754C19.0656 22.0869 19.7186 22.2044 20.3843 22.2243C20.3368 22.3654 20.2564 22.532 20.1475 22.6979C20.0145 22.9003 19.8685 23.0569 19.7487 23.1465C19.4016 23.4062 19.1216 23.5148 18.9516 23.5611C18.8656 23.5845 18.805 23.5926 18.7751 23.5954L18.764 23.5963L18.7575 23.5967L14.2912 23.5401L14.1318 25.2711L14.2812 24.4127L14.1326 25.2713L14.177 25.2797L14.304 25.3036C14.4139 25.3243 14.5723 25.3538 14.7669 25.3895C15.1559 25.4608 15.6903 25.557 16.2712 25.6561C17.4161 25.8516 18.7959 26.0682 19.5788 26.1177C20.1195 26.1519 20.7492 25.978 21.3348 25.7732C21.946 25.5595 22.6363 25.2635 23.3306 24.9651C24.761 24.3504 26.2175 23.725 27.4416 23.5129C28.4998 23.3295 28.8765 23.7345 29.0118 24.0113C29.2057 24.4079 29.1003 24.8487 28.9519 25.0081C28.9155 25.0472 28.7844 25.1579 28.5115 25.3433C28.2572 25.5161 27.9279 25.722 27.5417 25.9515C26.7703 26.4098 25.8018 26.9446 24.8157 27.4686C22.8237 28.527 20.8408 29.4985 20.2913 29.7094C19.8464 29.8801 19.2964 29.9217 18.5803 29.883C18.1572 29.8602 17.7559 29.8175 17.3183 29.7708C16.9647 29.7331 16.5873 29.693 16.1555 29.6587C14.7463 29.5468 13.6749 29.1902 12.5269 28.8081L12.4223 28.7733C11.2331 28.3778 9.96072 27.9672 8.27682 27.8961C7.89774 27.8802 7.22288 27.9047 6.62266 27.9345V21.7381C7.79337 21.2992 9.52725 20.64 10.0551 20.3879ZM12.3835 19.5939L12.5362 18.736C12.5364 18.7361 12.5362 18.736 12.3835 19.5939ZM4.95675 20.3024H2.4579V29.8971H4.95675V20.3024Z" fill="#333333"/>
</svg>
