<svg width="33" height="18" viewBox="0 0 33 18" fill="none" xmlns="http://www.w3.org/2000/svg">
<path fill-rule="evenodd" clip-rule="evenodd" d="M22.0238 0.814466C22.0238 0.364636 22.3884 0 22.8382 0H26.0961C26.5459 0 26.9106 0.364636 26.9106 0.814466V2.4434H29.354C29.8038 2.4434 30.1684 2.80803 30.1684 3.25786V8.14466H32.6118V9.77359H30.1684V14.6604C30.1684 15.1102 29.8038 15.4749 29.354 15.4749H26.9106V17.1038C26.9106 17.5536 26.5459 17.9182 26.0961 17.9182H22.8382C22.3884 17.9182 22.0238 17.5536 22.0238 17.1038V9.77359H10.6213V17.1038C10.6213 17.5536 10.2566 17.9182 9.80679 17.9182H6.54893C6.0991 17.9182 5.73446 17.5536 5.73446 17.1038V15.4749H3.29107C2.84125 15.4749 2.4766 15.1102 2.4766 14.6604V9.77359H0.0332031V8.14466H2.4766V3.25786C2.4766 2.80803 2.84125 2.4434 3.29107 2.4434H5.73446V0.814466C5.73446 0.364636 6.0991 0 6.54893 0H9.80679C10.2566 0 10.6213 0.364636 10.6213 0.814466V8.14466H22.0238V0.814466ZM7.3634 16.2893H8.99233V1.62893H7.3634V16.2893ZM5.73446 4.07233H4.10553V13.8459H5.73446V4.07233ZM26.9106 13.8459V4.07233H28.5395V13.8459H26.9106ZM25.2816 1.62893V16.2893H23.6527V1.62893H25.2816Z" fill="black"/>
</svg>
